Point(13) = {0.000000,1.000000,1.000000,0.100000};
Point(12) = {1.000000,1.000000,1.000000,0.100000};
Point(11) = {1.000000,0.000000,1.000000,0.100000};
Point(10) = {0.000000,0.000000,1.000000,0.100000};
Point(3) = {0.000000,1.000000,0.000000,0.100000};
Point(2) = {1.000000,1.000000,0.000000,0.100000};
Point(1) = {1.000000,0.000000,0.000000,0.100000};
Point(0) = {0.000000,0.000000,0.000000,0.100000};
Line(23) = {3,13};
Line(22) = {2,12};
Line(20) = {0,10};
Line(21) = {1,11};
Line(17) = {13,10};
Line(16) = {12,13};
Line(15) = {11,12};
Line(14) = {10,11};
Line(7) = {3,0};
Line(6) = {2,3};
Line(5) = {1,2};
Line(4) = {0,1};
Line Loop(30) = {7,20,-17,-23};
Line Loop(28) = {6,23,-16,-22};
Line Loop(26) = {5,22,-15,-21};
Line Loop(24) = {4,21,-14,-20};
Line Loop(18) = {14,15,16,17};
Line Loop(8) = {4,5,6,7};
Plane Surface(31) = {30};
Plane Surface(29) = {28};
Plane Surface(27) = {26};
Plane Surface(25) = {24};
Plane Surface(19) = {18};
Plane Surface(9) = {8};
Surface Loop(32) = {-9,19,25,27,-29,-31};
Volume(33) = {32};
Physical Point(13) = {13};
Physical Point(12) = {12};
Physical Point(11) = {11};
Physical Point(10) = {10};
Physical Point(3) = {3};
Physical Point(2) = {2};
Physical Point(1) = {1};
Physical Point(0) = {0};
Physical Line(23) = {23};
Physical Line(22) = {22};
Physical Line(20) = {20};
Physical Line(21) = {21};
Physical Line(17) = {17};
Physical Line(16) = {16};
Physical Line(15) = {15};
Physical Line(14) = {14};
Physical Line(7) = {7};
Physical Line(6) = {6};
Physical Line(5) = {5};
Physical Line(4) = {4};
Physical Surface(31) = {31};
Physical Surface(29) = {29};
Physical Surface(27) = {27};
Physical Surface(25) = {25};
Physical Surface(19) = {19};
Physical Surface(9) = {9};
Physical Volume(33) = {33};
